<svg width="1885" height="2543" viewBox="0 0 1885 2543" fill="none" xmlns="http://www.w3.org/2000/svg">
<path fill-rule="evenodd" clip-rule="evenodd" d="M1527.9 1977.37C1521.21 1939.61 1515.09 1901.75 1509.52 1863.81C1506.87 1845.79 1504.29 1827.76 1501.98 1809.7C1500.35 1797.04 1497.88 1782.57 1506.49 1773.2C1518.6 1760.01 1529.6 1748.72 1531.08 1729.83C1532.48 1712.05 1526.47 1692.67 1522.71 1675.41C1514.83 1639.22 1505.02 1603.48 1494.18 1568.08C1483.16 1532.11 1471.09 1496.48 1458.84 1460.92C1447.38 1427.67 1436.37 1394.12 1421.45 1362.22C1393.14 1301.68 1345.25 1256.84 1286.05 1226.91C1271.33 1219.46 1241.3 1192.88 1225.92 1186.93C1211.78 1181.46 1211.83 1197.44 1197.92 1191.42C1186.79 1186.61 1176.43 1180.2 1170.2 1169.45C1163.44 1157.79 1146.48 1141.47 1143.9 1127.89C1138.43 1099.11 1144.35 1074.61 1123.82 1052.94C1105.58 1033.71 1081.08 1020.53 1055.72 1013.45C999.935 997.891 925.54 1008.77 891.884 1060.62C875.808 1085.38 870.191 1115.31 848.5 1135.51C829.559 1153.16 833.798 1165.22 809.266 1174.31C807.876 1174.83 770.217 1166.75 768.827 1167.27C741.99 1161.52 716.34 1177.6 691.719 1186.93C655.012 1200.84 620.065 1218.95 587.233 1240.46C521.029 1283.85 464.327 1340.19 417.58 1403.94C370.447 1468.22 333.876 1540.27 307.837 1615.57C301.513 1633.86 295.833 1652.38 290.823 1671.07C288.019 1681.53 285.022 1692.38 288.437 1703.09C291.229 1711.86 297.442 1718.38 304.737 1723.64C314.627 1730.77 334.464 1735.4 334.077 1749.73C333.782 1760.63 330.085 1772.1 328.281 1782.87C326.133 1795.7 324.369 1808.6 322.604 1821.49C314.577 1880.13 308.33 1939.1 305.567 1998.23C302.847 2056.46 300.59 2115.88 304.628 2174.09C304.895 2177.93 306.039 2181.45 307.885 2184.43C306.162 2185.09 306.029 2188.3 308.174 2188.76C309.676 2189.08 311.176 2189.4 312.678 2189.71C315.799 2192.08 319.692 2193.52 324.171 2193.67C327.208 2193.76 330.243 2193.9 333.276 2194.05C365.286 2200.75 397.291 2207.07 429.718 2211.86C469.136 2217.68 508.671 2222.42 548.327 2226.28C629.815 2234.2 710.662 2231.57 792.257 2227.3C873.727 2223.04 955.149 2222.04 1036.7 2224.16C1118.33 2226.28 1199.92 2229.84 1281.57 2231.29C1372.78 2232.91 1463.86 2230.42 1554.8 2223.17C1567.27 2222.17 1574.99 2212.25 1572.53 2199.86C1557.79 2125.64 1541.1 2051.92 1527.9 1977.37Z" fill="white"/>
<path fill-rule="evenodd" clip-rule="evenodd" d="M743.377 1165.44C751.812 1165.07 760.413 1166.44 768.828 1167.27C769.561 1167.34 769.839 1168.47 769.013 1168.64C753.953 1171.79 739.058 1176.09 724.267 1180.47L717.935 1182.34C701.256 1187.28 685.066 1192.37 668.919 1198.95C636.739 1212.07 606.175 1229.77 578.046 1250.12C469.729 1328.45 391.334 1447.05 341.863 1569.83C328.428 1603.18 317.044 1637.36 307.823 1672.11C305.581 1680.56 303.471 1689.05 301.471 1697.56C300.884 1700.06 298.325 1706.45 299.728 1709.01C300.969 1711.27 305.791 1712.66 308.032 1713.84L315.596 1717.76C330.351 1725.37 354.929 1737.87 357.394 1739.09L361.238 1740.98C424.111 1771.81 491.29 1797.95 562.042 1799.76L562.596 1793.72V1793.72C565.75 1760.31 569.89 1726.72 578.925 1694.34C579.411 1692.6 581.625 1693.18 581.827 1694.73C586.861 1733.07 585.252 1771.7 583.496 1810.22C580.386 1878.43 576.257 1946.61 572.586 2014.8C570.749 2048.91 568.374 2083 566.23 2117.09C564.082 2151.25 563.387 2186.23 558.483 2220.11C557.39 2227.66 548.547 2231.77 541.85 2230.97C534.44 2230.09 528.74 2223.56 528.705 2216.08C528.616 2196.34 531.095 2176.37 532.473 2156.69C533.782 2137.98 535.187 2119.28 536.626 2100.59C541.887 2032.36 547.939 1964.21 553.536 1896.01C555.519 1871.82 557.662 1847.65 559.868 1823.49C484.917 1821.07 414.896 1793.3 348.097 1760.86C347.13 1782.82 344.795 1804.74 342.534 1826.6C336.224 1887.62 330.66 1948.62 326.496 2009.83C324.393 2040.75 322.862 2071.7 321.529 2102.66C320.873 2117.88 320.339 2133.09 319.93 2148.32C319.793 2153.39 319.669 2158.47 319.559 2163.54L319.331 2175.17C319.145 2182.53 318.396 2189.36 312.2 2194.72C305.906 2200.16 297.405 2200.46 291.176 2194.72C282.837 2187.04 284.311 2176.57 284.558 2166.26C284.764 2157.56 285.011 2148.86 285.298 2140.16C285.873 2122.77 286.608 2105.38 287.502 2087.99C290.63 2027.22 296.88 1966.69 305.048 1906.4L308.236 1883.13C314.191 1839.87 320.728 1795.62 334.038 1753.95C328.856 1751.37 323.688 1748.77 318.54 1746.16C309.409 1741.54 299.967 1737.2 291.091 1732.1C284.049 1728.05 277.976 1722.49 276.016 1714.3C273.829 1705.16 277.172 1695.18 279.393 1686.27L279.586 1685.49C281.764 1676.51 284.109 1667.58 286.583 1658.69C296.617 1622.63 309.024 1587.27 323.544 1552.77C352.616 1483.71 390.142 1418.11 435.98 1358.78C477.24 1305.39 525.982 1256.96 583.109 1220.64C611.038 1202.89 640.8 1188.31 672.276 1178C686.988 1173.18 702.995 1168.99 718.399 1167.27C726.708 1166.34 735.028 1165.8 743.377 1165.44ZM892.826 1056.01C902.85 1045.24 922.764 1056.38 917.951 1070.64C906.631 1104.18 888.604 1134.77 860.47 1156.81C834.024 1177.53 802.488 1190.99 768.527 1188.11C768.265 1188.09 768.037 1188.02 767.837 1187.93L770.764 1191.9C793.741 1222.99 817.981 1253.65 847.197 1279.06C906.724 1330.83 987.772 1358.76 1066.03 1338.89C1127.61 1323.26 1181.86 1274.56 1197.81 1212.5C1195.52 1213.52 1192.81 1213.87 1189.82 1213.22C1177.06 1210.45 1164.42 1197.02 1156.19 1187.39C1147.28 1176.98 1140.33 1165.73 1135.23 1153.02C1125.9 1129.75 1122.91 1099.79 1135.65 1077.26C1137.22 1074.48 1140.84 1076.03 1141.15 1078.75L1141.64 1082.98C1144.09 1104.1 1147.15 1124.54 1157.11 1143.79C1161.98 1153.21 1167.82 1162.41 1174.93 1170.3C1178.74 1174.52 1182.86 1178.56 1187.32 1182.1C1191.65 1185.55 1196.91 1188.04 1200.8 1192L1201.51 1192.76L1201.53 1192.62C1202.51 1184.26 1208.37 1180.57 1214.11 1180.81C1219.66 1181.03 1226.18 1183.47 1228.71 1184.64L1228.95 1184.76C1267.68 1203.35 1303.34 1227.59 1336.91 1254.48C1406.33 1310.09 1458.34 1382.79 1483.54 1468.4C1495.91 1510.41 1503 1553.71 1510.5 1596.8L1515.11 1623.2C1522.1 1662.99 1529.91 1703.55 1545.7 1740.56C1549.78 1750.13 1546.63 1759.11 1536.62 1762.87C1524.12 1767.57 1511.57 1772.12 1499 1776.62C1505.17 1803.1 1508.94 1830.5 1513.56 1857.11C1523.39 1913.67 1535.43 1969.88 1545.76 2026.37C1551.04 2055.25 1555.8 2084.23 1561.07 2113.12C1563.61 2127.03 1566.26 2140.92 1568.84 2154.82C1570.23 2162.32 1571.49 2169.84 1572.81 2177.35L1573.04 2178.6C1573.8 2182.56 1574.75 2186.65 1573.66 2190.62C1572.42 2195.14 1568.9 2198.33 1565.75 2201.57C1563.15 2204.24 1559.41 2204.26 1556.23 2202.8L1555.19 2202.32C1549.51 2199.66 1545.07 2197.02 1543.06 2190.62C1541.78 2186.56 1541.32 2182 1540.49 2177.82C1538.9 2169.82 1537.38 2161.81 1535.95 2153.77C1533.09 2137.69 1530.3 2121.6 1527.57 2105.5L1525.03 2090.42C1516.29 2038.45 1507.99 1986.16 1503.79 1933.64C1501.93 1910.34 1499.95 1887.06 1497.96 1863.78L1496.47 1846.32C1494.58 1824.21 1492.27 1801.55 1491.94 1779.15L1484.43 1781.81V1781.81L1447.76 1794.78V1794.78C1438.67 1797.99 1427.09 1804.58 1417.3 1803.38C1412.51 1802.79 1408.86 1801.29 1406.04 1798.55C1409.42 1846.21 1413.99 1893.79 1420.08 1941.13C1425.62 1984.2 1431.77 2027.22 1439.03 2070.04C1442.62 2091.24 1446.31 2112.42 1450.33 2133.55C1452.33 2144.11 1454.4 2154.67 1456.53 2165.21C1457.6 2170.46 1458.86 2175.73 1459.69 2181.03C1460.64 2187.1 1458.97 2190.84 1455.58 2195.83C1452.79 2199.93 1447.22 2202.04 1442.71 2199.21C1436.72 2195.45 1433.61 2192.2 1431.85 2185.37C1430.25 2179.16 1429.28 2172.68 1428.04 2166.39C1425.75 2154.78 1423.55 2143.16 1421.42 2131.52C1416.96 2107.18 1412.85 2082.78 1409.18 2058.31C1396.26 1972.1 1388.05 1885.17 1383.91 1798.1C1381.86 1755.14 1381.23 1712.14 1381.6 1669.14C1381.78 1647.1 1382.5 1624.99 1384.06 1603C1385.64 1580.75 1388.92 1558.94 1391.86 1536.89C1391.96 1536.12 1393.05 1536.07 1393.1 1536.89C1394.49 1561.61 1396.66 1586.29 1397.73 1611.07C1398.75 1634.71 1399.19 1658.39 1400 1682.05C1401.07 1713.14 1402.54 1744.24 1404.49 1775.33C1408.03 1771.46 1413.35 1769.23 1418.68 1770.1C1426.41 1768.48 1434.72 1764.43 1442.08 1761.97L1469.83 1752.7V1752.7C1484.42 1747.82 1499.01 1742.98 1513.65 1738.29C1500.56 1694.24 1491.6 1649.54 1483.94 1604.18L1480.52 1583.78C1473.76 1543.63 1466.48 1503.46 1454.23 1464.58C1441.36 1423.71 1422.1 1385.7 1396.55 1351.29C1371.36 1317.37 1340.72 1287.5 1309.17 1259.57C1282.16 1235.65 1253.26 1214.06 1225.71 1190.81C1226 1192.35 1226.06 1194.04 1225.81 1195.91C1219.95 1238.79 1197.59 1278.72 1166.42 1308.42C1103.8 1368.09 1011.12 1380.47 930.979 1352.49C853.458 1325.43 784.919 1261.33 760.704 1182C760.289 1180.65 762.107 1180.11 762.837 1181.11C764.18 1182.95 765.53 1184.79 766.882 1186.63C766.79 1185.9 767.17 1185.1 768.072 1184.75C796.326 1173.84 824.07 1158.37 845.248 1136.47C855.57 1125.8 864.579 1113.71 871.691 1100.68C875.097 1094.43 878.157 1087.96 880.598 1081.28L881.219 1079.55C884.177 1071.18 886.65 1062.64 892.826 1056.01Z" fill="black"/>
<path fill-rule="evenodd" clip-rule="evenodd" d="M729.673 468.457C738.274 459.226 749.275 452.348 761.3 450.15C750.308 455.643 739.563 461.367 729.673 468.457ZM712.827 548.055C711.306 541.02 710.284 533.916 709.963 526.815C711.885 529.738 714.955 531.69 718.403 532.699C716.175 537.687 714.281 542.826 712.827 548.055ZM1288.34 658.356C1278.42 617.023 1232.1 537.52 1221.15 522.218C1209.26 484.328 1274.1 453.942 1238.84 424.314C1222.87 410.945 1201.77 406.214 1181.98 401.473C1044.94 368.555 897.711 385.157 770.614 445.689C751.281 441.62 731.139 449.573 717.081 463.54C651.033 529.94 741.044 649.745 760.726 724.602C794.496 808.069 724.934 822.11 732.393 892.732C738.19 929.216 775.135 938.859 806.312 944.373C811.309 945.542 817.989 945.718 819.601 951.002C824.653 981.841 841.97 1011.23 865.22 1031.18C863.187 1037.2 864.739 1044.52 871.909 1049.81C936.867 1098.09 1018.77 1122.25 1099.79 1117.91C1196.34 1112.73 1246.27 1057.38 1258.32 1043.13C1324.94 953.142 1316.98 834.412 1303.39 727.17C1293.92 652.462 1305.93 731.578 1288.34 658.356Z" fill="white"/>
<path fill-rule="evenodd" clip-rule="evenodd" d="M990.629 314.419C993.664 304.93 1002.25 299.224 1012.09 300.402C1020.8 301.43 1030.12 310.073 1029.06 319.611C1028.86 321.452 1028.59 323.178 1028.28 324.803L1028.32 324.818V324.818L1028.36 324.82L1028.14 325.45C1027.5 328.486 1026.6 331.206 1025.27 333.777C1023.58 338.704 1021.96 343.648 1020.35 348.608C1022.67 348.508 1025.04 348.641 1027.45 349.089C1029.93 342.719 1032.44 336.365 1034.93 329.979C1037.6 323.161 1039.47 314.402 1044.74 309.127C1051.49 302.392 1063.2 300.999 1071.43 305.809C1080.12 310.886 1083.22 319.91 1081.33 329.581C1080.37 334.514 1077.07 337.947 1073 340.104L1072.56 340.33L1069.42 347.762C1070.38 347.347 1071.38 346.965 1072.46 346.65C1074.15 346.152 1075.81 345.837 1077.43 345.705C1081.91 337.593 1086.84 329.713 1091.93 321.983C1097.78 313.092 1109.22 309.31 1118.83 314.933C1127.42 319.959 1132.03 333.164 1125.88 341.839C1121.2 348.425 1116.77 355.143 1112.41 361.928C1113.16 362.061 1113.9 362.227 1114.61 362.442C1114.95 361.994 1115.29 361.546 1115.66 361.099C1120.42 355.193 1125.96 350.764 1131.65 345.854C1136.97 341.242 1139.43 333.993 1146.42 330.493C1155.23 326.097 1165.84 328.204 1171.08 336.962C1182.33 355.724 1163.46 369.426 1151.38 380.789C1161.88 374.237 1172.81 368.248 1184.02 363.073C1190.32 360.17 1196.72 357.366 1203.23 354.944C1212.86 351.361 1220.66 352.507 1228.57 359.174C1232.1 362.16 1233.86 368.681 1232.23 373.026C1229.08 381.353 1224.11 386.412 1215.38 388.818C1209.25 390.51 1202.96 391.654 1196.82 393.429C1186.54 396.382 1176.56 399.982 1166.87 404.477C1167.57 404.909 1168.23 405.373 1168.85 405.904C1176.08 403.565 1183.44 401.541 1190.84 399.816C1203.1 396.939 1215.59 394.995 1228.13 393.779L1232.3 393.391C1247.33 391.948 1265.41 389.285 1274.64 403.681C1277.67 408.425 1278.01 416.255 1274.64 420.949C1268.2 429.974 1261.8 431.765 1251.15 431.931C1261.64 433.042 1272.1 434.419 1282.52 436.028C1289.69 437.123 1296.87 438.364 1304.02 439.741L1307.59 440.441C1316.3 442.183 1326.02 443.195 1333.5 448.237C1349.82 459.252 1342.15 480.701 1324.08 482.99C1315.34 484.085 1305.63 480.386 1297.06 478.66C1288.74 476.985 1280.38 475.509 1271.98 474.215C1267.64 473.535 1263.29 472.937 1258.93 472.39C1267.81 473.667 1276.61 475.476 1285.19 478.03L1287.57 478.749C1304.14 483.802 1326.52 491.85 1331.69 509.565C1334.82 520.331 1326.25 529.72 1315.87 530.35C1306.22 530.931 1298.17 525.174 1289.98 520.928C1284.01 517.842 1277.94 515.536 1271.5 513.562C1264.85 511.522 1258.07 509.83 1251.24 508.453C1257.01 511.635 1262.64 515.132 1268.03 519.045L1270.52 520.878C1284.86 531.572 1306.74 548.127 1301.69 568.171C1300.1 574.492 1293.05 580.53 1286.28 579.883C1268.67 578.241 1258.95 559.479 1245.67 549.427C1242.2 546.806 1238.4 544.218 1234.42 541.696C1254.55 565.716 1270.58 593.485 1282.76 622.167C1309.55 685.265 1317.77 743.7 1317.97 811.545L1317.97 813.646C1318.01 851.07 1317.16 889.173 1313.51 926.431C1310.13 960.852 1303.93 994.825 1288.32 1026C1262.17 1078.26 1211.2 1118.97 1155 1134.47C1092.46 1151.72 1022.55 1138.23 971.324 1098.42C958.256 1088.27 975.587 1066.22 988.937 1075.59C1042.26 1113 1111.21 1124.84 1172.41 1099.53C1220.95 1079.46 1260.04 1036.28 1276.61 986.564C1287.16 954.936 1290.23 921.212 1293.99 888.251L1294.24 886.055C1298.22 851.584 1300.53 816.881 1300.49 782.178C1300.44 717.732 1291.19 664.683 1262.85 606.225C1249.51 578.688 1232.22 553.227 1211.55 530.881C1205.28 532.158 1198.62 530.366 1192.28 529.686C1189.05 529.338 1185.81 529.006 1182.58 528.708C1185.88 530.844 1189.12 533.066 1192.31 535.339L1196.48 538.352C1209.55 547.715 1226.14 558.38 1222.78 576.482C1221.87 581.376 1216.99 585.871 1212.26 586.983C1195.13 591.063 1183.36 574.409 1171.78 564.522C1161.71 555.929 1151.18 548.232 1140.45 540.519C1138.02 538.777 1135.56 537.035 1133.09 535.31C1135.41 538.017 1137.67 540.767 1139.87 543.542L1143.13 547.671C1152.98 560.005 1167.19 576.037 1158.41 592.026C1155.93 596.538 1150.62 599.54 1145.48 599.441C1127.8 599.076 1120.77 579.004 1112.48 566.33C1105.34 555.465 1097.6 545.23 1089.59 534.995C1087.38 532.191 1085.16 529.388 1082.91 526.584C1045.77 528.509 1008.77 533.419 972.419 541.265C947.443 546.656 922.881 553.642 898.502 561.287L896.476 561.932C883.282 566.181 869.688 571.619 860.175 580.944C858.817 587.37 859.86 594.146 861.159 600.562L862.171 605.474C866.342 626.011 869.185 646.168 867.058 667.254C864.852 689.001 858.301 708.559 850.307 728.764C846.526 738.285 842.612 736.56 841.269 746.779C840.24 754.562 840.876 762.597 841.579 770.445L842.167 777.099C843.641 794.528 844.381 813.531 832.96 827.912C831.185 830.119 827.388 829.24 826.127 827.033C825.63 826.154 825.099 825.308 824.518 824.495C819.012 816.516 810.571 811.971 800.919 810.213C799.691 809.997 800.172 808.355 801.201 808.222C809.36 807.26 817.089 809.3 823.656 813.514C820.542 802.742 796.431 807.98 788.504 810.074L788.232 810.146C778.347 812.8 768.993 817.113 760.751 823.218C744.166 835.493 734.581 854.636 735.062 875.256C735.543 895.527 746.007 914.255 763.985 923.959C772.659 928.637 782.526 930.893 792.344 930.794C802.594 930.694 811.715 926.199 821.981 926.829C827.918 927.194 832.462 933.564 829.029 939.121C826.741 942.837 823.756 945.756 820.306 947.996C828.714 967.388 839.444 985.884 851.817 1002.95C858.666 1012.43 866.427 1021.17 874.968 1029.15C881.635 1035.38 896.081 1042.6 895.268 1053C894.986 1056.75 893.046 1059.04 889.629 1060.43C879.008 1064.78 866.092 1049.82 858.988 1042.61L858.417 1042.04C849.561 1033.21 841.484 1023.46 834.453 1013.11C821.981 994.725 814.236 974.006 811.035 952.242C794.003 957.368 771.448 952.558 757.55 946.271C713.867 926.53 699.587 867.691 726.139 828.51C731.28 820.929 737.715 814.443 745.045 809.201C743.437 808.322 741.928 807.194 740.584 805.767C733.153 797.871 727.899 787.568 722.685 778.072L722.059 776.936C717.43 768.576 713.064 760.084 708.97 751.461L707.448 748.222C698.31 728.565 690.3 719.972 683.782 699.303C677.513 679.363 672.571 659.043 669.37 638.373L668.52 632.903C666.669 620.909 664.918 608.084 666.269 595.907C656.965 598.943 647.611 600.817 638.407 596.256C632.337 593.253 628.987 584.494 631.06 578.207C632.569 573.579 635.09 569.946 638.291 567.093C636.384 566.131 634.593 564.904 633.017 563.543L631.641 562.351V562.351C626.068 557.505 625.67 548.299 629.053 542.227C629.385 541.647 629.717 541.049 630.032 540.469C633.249 534.713 639.9 530.947 646.467 531.047C647.529 531.063 648.59 531.063 649.668 531.047C646.6 530.366 643.598 529.321 640.745 527.563C627.876 519.65 629.501 498.202 645.074 494.419C651.608 492.844 658.823 493.491 666.02 495.183C665.755 495.033 665.49 494.884 665.224 494.718C659.785 491.384 655.224 484.865 655.738 478.179C656.302 470.781 658.69 465.506 665.224 461.624C670.896 458.273 678.923 457.958 684.562 461.624C689.454 464.826 694.247 468.359 698.858 472.158C694.231 466.468 690.217 460.281 688.592 453.712C686.585 445.533 689.935 436.626 697.299 432.313C703.17 428.879 709.372 429.26 714.911 431.914C714.613 427.618 715.658 423.239 718.51 419.357C724.348 411.396 734.962 406.816 744.2 412.622C745.41 413.385 747.036 414.696 748.611 416.305C745.543 406.534 748.313 396.283 758.777 391.87C765.162 389.166 773.803 390.526 779.342 395.188C775.826 376.161 803.904 362.177 814.816 381.834C817.293 386.287 819.744 390.976 821.935 395.773L822.744 397.576L822.827 397.543L822.269 396.224V396.224L821.699 394.906C818.664 387.856 814.8 380.524 813.738 372.876C812.18 361.563 817.221 350.83 829.527 349.172C835.879 348.309 842.944 351.195 847.206 356.24C844.901 338.688 864.504 325.931 878.617 339.036C885.301 345.24 888.866 354.314 893.112 362.276C895.517 366.772 897.971 371.251 900.376 375.763C900.99 375.033 901.653 374.303 902.35 373.59C898.784 362.907 896.014 351.958 893.676 340.944C891.453 330.559 896.644 319.777 907.358 316.842C917.093 314.153 929.283 320.16 931.455 330.528C932.981 337.825 934.789 345.043 936.779 352.224C938.139 351.892 939.482 351.66 940.809 351.494C940.92 350.145 941.045 348.788 941.185 347.439L941.707 342.64C942.867 331.676 944.036 319.161 949.765 309.84C959.533 293.916 984.575 300.518 984.841 319.346C984.99 329.083 981.026 338.737 979.65 348.375C979.053 352.572 978.705 356.819 978.506 361.065C981.176 346.965 984.841 333.048 989.086 319.346C989.584 317.703 990.115 316.061 990.629 314.419ZM774.566 858.154C796.54 854.753 816.624 867.012 829.643 884.181C832.014 887.316 830.456 891.745 828.316 894.383C826.774 896.323 824.701 896.556 822.362 896.854C819.676 897.203 816.276 895.03 815.098 892.691C806.723 875.969 791.78 865.403 774.566 858.9C774.251 858.784 774.151 858.22 774.566 858.154ZM805.028 558.56L805.693 557.845C810.14 553.232 803.113 546.185 798.657 550.808C793.965 555.675 790.847 561.587 787.848 567.579C784.991 573.292 793.572 578.338 796.441 572.604L797.747 569.997C799.798 565.945 801.985 561.941 805.028 558.56V558.56ZM743.316 549.091C749.618 548.03 746.946 538.437 740.67 539.495C732.541 540.865 724.443 542.423 716.311 543.795C710.011 544.856 712.682 554.45 718.958 553.393C727.088 552.021 735.186 550.463 743.316 549.091ZM1118.74 483.599C1112.65 481.567 1110.04 491.176 1116.09 493.197C1124.46 495.989 1132.76 498.85 1140.69 502.727C1146.43 505.527 1151.48 496.946 1145.72 494.132C1137 489.878 1127.92 486.664 1118.74 483.599ZM741.883 470.7C735.937 468.321 733.355 477.944 739.238 480.298L760.731 488.896V488.896C766.677 491.274 769.259 481.653 763.376 479.299L741.883 470.7V470.7ZM1193.79 447.331L1193 446.836C1187.61 443.342 1182.62 451.955 1187.98 455.43C1191.13 457.469 1194.95 458.852 1197.83 461.281L1198.44 461.818C1203.09 466.214 1210.14 459.191 1205.47 454.78C1202.06 451.556 1197.74 449.761 1193.79 447.331V447.331Z" fill="black"/>
<path fill-rule="evenodd" clip-rule="evenodd" d="M1124.74 1006.79C1113.6 1002.24 1103.65 994.656 1096.38 984.962C1093.85 981.593 1093.19 978.034 1093.72 974.779C1094.32 971.12 1096.48 967.803 1099.43 965.578C1102.4 963.346 1106.1 962.246 1109.68 962.807C1112.79 963.294 1115.89 964.998 1118.34 968.533L1118.85 969.24C1123.18 975.09 1128.81 979.891 1135.23 982.985C1141.42 985.967 1148.34 987.359 1155.5 986.549C1169.14 985.008 1178.54 977.631 1188.53 967.612C1189.77 966.347 1191.01 965.042 1192.25 963.717C1193.04 962.515 1194.13 961.743 1195.34 961.338C1196.69 960.888 1198.21 960.913 1199.61 961.4C1200.95 961.869 1202.15 962.758 1202.96 963.942C1203.72 965.067 1204.16 966.457 1204.02 968.055C1203.1 978.438 1197.68 987.705 1189.97 994.981C1181.41 1003.06 1170.06 1008.65 1159.37 1010.61C1147.6 1012.77 1135.61 1011.23 1124.74 1006.79V1006.79ZM1164.92 846.617C1177.45 854.231 1196.53 871.986 1183.06 890.862C1167.2 907.506 1144.37 888.423 1133.12 879.792C1122.68 873.103 1110.96 890.306 1120.64 898.117C1201.94 958.325 1234.94 848.608 1171.26 837.664C1164.25 836.459 1161.64 844.261 1164.92 846.617ZM1019.23 776.579C1020.61 759.4 1046.77 755.499 1049.37 772.499C1051.7 787.727 1048.96 801.716 1042.1 815.426C1035.55 828.524 1019.08 822.413 1017.83 810.486C1016.16 794.499 1018.37 787.266 1019.23 776.579ZM1218.35 768.974C1221.99 764.196 1227.26 760.935 1233.57 762.778C1253.28 768.539 1247.47 796.529 1240.55 810.153C1236.79 817.551 1224.63 819.427 1219.13 812.913C1210.18 802.29 1205.89 781.075 1217.27 770.611C1217.58 770.07 1217.93 769.524 1218.35 768.974ZM1041.82 701.408L1044.94 700.863C1054.57 699.196 1066.55 697.595 1073.36 705.341C1076.97 709.448 1078.22 717.082 1073.36 721.013C1064.81 727.931 1055.37 725.25 1045.13 725.836C1036.69 726.32 1028.58 727.717 1020.45 730.041C1002.62 735.138 988.091 744.445 972.862 754.663C970.863 756.003 968.823 753.447 969.777 751.578C978.568 734.354 995.606 720.206 1012.67 711.581C1021.78 706.978 1031.75 703.159 1041.82 701.408ZM1200.38 693.692L1202.76 694.18C1228.7 699.602 1262.39 710.433 1274.67 735.912C1275.14 739.515 1274.64 740.287 1274.24 740.791L1274.11 740.959C1273.78 741.39 1273.51 741.984 1271.95 742.474C1271.52 742.371 1271.08 742.262 1270.64 742.146C1265.01 740.67 1260.56 738.637 1256.24 736.528L1251.57 734.224C1246.14 731.564 1240.67 729.001 1234.87 727.108C1222.5 723.071 1209.77 720.227 1196.84 718.708C1194.04 718.379 1191.34 717.433 1189.21 715.812C1187.19 714.274 1185.65 712.144 1184.95 709.312C1184.03 705.648 1184.3 702.873 1186.26 699.567C1187.74 697.085 1189.86 695.364 1192.28 694.376C1194.76 693.368 1197.58 693.131 1200.38 693.692Z" fill="black"/>
</svg>
